<svg width="15" height="15" viewBox="0 0 15 15" fill="none" xmlns="http://www.w3.org/2000/svg">
<path d="M7.5 0C6.01664 0 4.56659 0.439867 3.33323 1.26398C2.09986 2.08809 1.13856 3.25943 0.570907 4.62987C0.0032495 6.00032 -0.145275 7.50832 0.144114 8.96317C0.433503 10.418 1.14781 11.7544 2.1967 12.8033C3.2456 13.8522 4.58197 14.5665 6.03682 14.8559C7.49168 15.1453 8.99968 14.9967 10.3701 14.4291C11.7406 13.8614 12.9119 12.9001 13.736 11.6668C14.5601 10.4334 15 8.98336 15 7.5C14.9977 5.51159 14.2067 3.60529 12.8007 2.19928C11.3947 0.793261 9.48841 0.00233518 7.5 0ZM7.5 14.1176C6.19115 14.1176 4.9117 13.7295 3.82343 13.0024C2.73517 12.2752 1.88697 11.2417 1.38609 10.0325C0.88522 8.82325 0.754169 7.49266 1.00951 6.20896C1.26486 4.92526 1.89513 3.74611 2.82062 2.82062C3.74611 1.89512 4.92527 1.26485 6.20896 1.00951C7.49266 0.754166 8.82325 0.885217 10.0325 1.38609C11.2417 1.88696 12.2752 2.73517 13.0024 3.82343C13.7295 4.9117 14.1176 6.19115 14.1176 7.5C14.1157 9.25451 13.4179 10.9366 12.1772 12.1772C10.9366 13.4179 9.25451 14.1157 7.5 14.1176ZM10.7529 6.01176C10.8356 6.09448 10.882 6.20662 10.882 6.32353C10.882 6.44044 10.8356 6.55257 10.7529 6.63529L7.81177 9.57647C7.72905 9.65909 7.61691 9.70549 7.5 9.70549C7.38309 9.70549 7.27096 9.65909 7.18824 9.57647L4.24706 6.63529C4.16913 6.55166 4.12671 6.44104 4.12872 6.32675C4.13074 6.21246 4.17704 6.1034 4.25787 6.02257C4.3387 5.94174 4.44775 5.89544 4.56205 5.89342C4.67634 5.89141 4.78696 5.93383 4.87059 6.01176L7.5 8.64044L10.1294 6.01176C10.2121 5.92915 10.3243 5.88274 10.4412 5.88274C10.5581 5.88274 10.6702 5.92915 10.7529 6.01176Z" fill="white"/>
</svg>
