<svg width="28" height="28" viewBox="0 0 28 28" fill="none" xmlns="http://www.w3.org/2000/svg">
<g clip-path="url(#clip0_5778_517)">
<path d="M25.0201 11.5705L20.8761 9.17798C20.3786 8.89076 19.9384 8.26733 19.7865 7.63503L18.5187 2.36721C18.2823 1.3853 17.6445 0.594247 17.0055 0.22538C16.5917 -0.0135492 16.1774 -0.0754553 15.8712 0.102443L10.5316 3.20552L8.95302 2.29415C8.48577 2.02438 8.1005 2.0101 7.82487 2.17028L1.8622 5.63539C1.88079 5.62461 1.89988 5.61477 1.9194 5.60564C1.23045 5.92922 1.14864 7.26611 2.04381 8.53322L5.38806 13.2672C5.79006 13.8357 5.95692 14.5288 5.80144 14.9842L4.50786 18.7731C4.14047 19.8491 5.02663 21.4836 6.02358 22.0592C6.33535 22.2392 6.65801 22.3156 6.95649 22.239L10.3165 21.3751C10.5182 21.3233 10.7555 21.3762 10.9924 21.5131C11.2294 21.6499 11.4662 21.8707 11.6669 22.1547L15.0116 26.8896C15.3086 27.3101 15.6304 27.6056 15.9421 27.7856C16.3772 28.0368 16.7923 28.0624 17.0921 27.8872C17.0915 27.8875 17.0911 27.888 17.0905 27.8882L23.0531 24.4231C23.4411 24.1976 23.6369 23.6363 23.4339 22.7924L22.1949 17.6447L26.1594 15.3408C27.1183 14.7837 26.4691 12.4071 25.0201 11.5705Z" fill="#FED322"/>
<path d="M1.86224 5.6355L7.82481 2.1704C8.10049 2.01022 8.48571 2.02449 8.95296 2.29426L2.99039 5.75937C2.52314 5.48959 2.13787 5.47532 1.86224 5.6355Z" fill="#FFE577"/>
<path d="M23.0531 24.4232L17.0906 27.8883C17.4786 27.6628 17.6744 27.1015 17.4714 26.2576L23.4339 22.7925C23.6368 23.6365 23.4411 24.1977 23.0531 24.4232Z" fill="#DDB201"/>
<path d="M2.99036 5.75905L8.95292 2.29395L13.0969 4.68646L7.13435 8.15157L2.99036 5.75905Z" fill="#FFEB9A"/>
<path d="M13.9147 4.7662L7.95209 8.23131C7.74034 8.35441 7.44831 8.33286 7.13446 8.15157L13.097 4.68652C13.4109 4.86781 13.7028 4.8893 13.9147 4.7662Z" fill="#FFE577"/>
<path d="M16.2035 20.99L22.1661 17.5249L23.4339 22.7927L17.4713 26.2578L16.2035 20.99Z" fill="#EEBF00"/>
<path d="M16.4828 19.8128L22.4453 16.3477C22.1458 16.5217 22.033 16.9719 22.1661 17.5246L16.2035 20.9897C16.0704 20.437 16.1833 19.9868 16.4828 19.8128Z" fill="#FED322"/>
<path d="M13.8239 11.1004L19.7864 7.63525C19.9383 8.26755 20.3785 8.89099 20.876 9.1782L14.9134 12.6433C14.4161 12.3561 13.9758 11.7327 13.8239 11.1004Z" fill="#FFE577"/>
<path d="M9.90863 3.56755L15.8712 0.102443C16.1773 -0.0754553 16.5917 -0.0135492 17.0055 0.22538L11.0429 3.69048C10.6291 3.45155 10.2148 3.3897 9.90863 3.56755Z" fill="#FFEB9A"/>
<path d="M12.5561 5.83224L18.5187 2.36719L19.7865 7.63495L13.8239 11.1001L12.5561 5.83224Z" fill="#FFDE56"/>
<path d="M11.0429 3.69069L17.0055 0.225586C17.6445 0.594507 18.2823 1.38551 18.5186 2.36742L12.5561 5.83252C12.3197 4.85061 11.6819 4.05961 11.0429 3.69069Z" fill="#FFE577"/>
<path d="M14.9135 12.6428L20.8761 9.17773L25.0201 11.5703L19.0575 15.0354L14.9135 12.6428Z" fill="#FFEB9A"/>
<path d="M26.1595 15.3406L20.197 18.8057C21.1557 18.2485 20.5065 15.872 19.0576 15.0354L25.0201 11.5703C26.4691 12.4068 27.1183 14.7834 26.1595 15.3406Z" fill="#FFDE56"/>
<path d="M11.0429 3.69069C11.6819 4.05961 12.3197 4.85061 12.556 5.83252L13.8239 11.1003C13.9757 11.7326 14.416 12.3561 14.9135 12.6433L19.0575 15.0358C20.6023 15.9277 21.2381 18.5701 19.9852 18.8919L16.6252 19.7551C16.2213 19.8583 16.0511 20.3568 16.2035 20.99L17.4714 26.2578C17.831 27.7535 16.9387 28.3613 15.9422 27.786C15.6305 27.606 15.3086 27.3104 15.0117 26.8899L11.667 22.155C11.4662 21.871 11.2295 21.6501 10.9925 21.5134C10.7555 21.3766 10.5183 21.3237 10.3166 21.3754L6.95656 22.2393C6.65813 22.3159 6.33542 22.2395 6.02365 22.0595C5.0267 21.4839 4.14054 19.8495 4.50793 18.7734L5.80145 14.9845C5.95693 14.529 5.79008 13.8359 5.38807 13.2674L2.04383 8.53353C0.796901 6.76861 1.44555 4.86773 2.99036 5.75962L7.13435 8.15214C7.63184 8.43936 8.07415 8.32545 8.22963 7.87067L9.52266 4.08138C9.76372 3.37493 10.4039 3.32177 11.0429 3.69069Z" fill="#FED322"/>
</g>
<defs>
<clipPath id="clip0_5778_517">
<rect width="28" height="28" fill="white"/>
</clipPath>
</defs>
</svg>
