<svg width="18" height="18" viewBox="0 0 18 18" fill="none" xmlns="http://www.w3.org/2000/svg">
<path d="M13.9861 15.85V2.35008C13.9852 1.60477 13.3812 1.00095 12.636 1H5.61601C4.87087 1.00095 4.26696 1.60477 4.26609 2.35008V3.7C4.11692 3.7 3.99609 3.82091 3.99609 3.97008V5.05C3.99609 5.19917 4.11692 5.32008 4.26609 5.32008V5.86C4.11692 5.86 3.99609 5.98099 3.99609 6.13V7.21C3.99609 7.35918 4.11692 7.48 4.26609 7.48V15.85C4.26696 16.5953 4.87087 17.1991 5.61601 17.2H12.636C13.3812 17.1991 13.9852 16.5953 13.9861 15.85ZM4.80609 2.35008C4.80609 1.90272 5.16874 1.54 5.61601 1.54H12.636C13.0834 1.54 13.446 1.90272 13.446 2.35008V3.16H4.80609V2.35008ZM4.80609 7.21V3.7H13.446V14.5001H4.80609V7.21ZM8.05309 16.6601H5.61601C5.16874 16.6601 4.80609 16.2973 4.80609 15.85V15.0401H8.05309C7.68378 15.517 7.68378 16.1832 8.05309 16.6601ZM9.12604 16.6601C8.67863 16.6601 8.31611 16.2973 8.31611 15.85C8.31611 15.4027 8.67863 15.0401 9.12604 15.0401C9.57344 15.0401 9.93611 15.4027 9.93611 15.85C9.93611 16.2973 9.57344 16.6601 9.12604 16.6601ZM10.1989 15.0401H13.446V15.85C13.446 16.2973 13.0834 16.6601 12.636 16.6601H10.1989C10.5683 16.1832 10.5683 15.517 10.1989 15.0401Z" fill="#806886"/>
<path d="M9.39735 2.35008C9.39735 2.49909 9.27653 2.62 9.12735 2.62C8.97831 2.62 8.85742 2.49909 8.85742 2.35008C8.85742 2.20091 8.97831 2.08 9.12735 2.08C9.27653 2.08 9.39735 2.20091 9.39735 2.35008Z" fill="#806886"/>
<path d="M11.4325 8.95802L10.983 8.87702C10.8843 8.53063 10.5683 8.29138 10.2082 8.29001H8.04832C7.6882 8.29116 7.37243 8.53042 7.2737 8.87652L6.82396 8.95759C6.61271 8.99575 6.42506 9.11635 6.30265 9.29297C6.18024 9.46958 6.13281 9.68746 6.17122 9.89899L6.77931 13.258C6.85294 13.6648 7.20711 13.9603 7.62066 13.96H10.636C11.0494 13.9603 11.4035 13.6647 11.4773 13.258L12.0852 9.89914C12.1648 9.45907 11.8726 9.03758 11.4325 8.95802ZM7.23823 12.7603L6.70274 9.80208C6.67614 9.65585 6.77281 9.51552 6.91882 9.48823L7.23823 9.43186V12.7603ZM8.04832 13.4201C7.89921 13.4201 7.77818 13.2992 7.77818 13.15V11.9647L8.65139 13.4201H8.04832ZM10.2082 13.4201H9.2811L7.77818 10.9153V9.68105L10.3737 13.3579C10.3274 13.397 10.2689 13.4189 10.2082 13.4201ZM10.4783 12.569L7.91951 8.94434C7.90562 8.92721 7.8897 8.91216 7.87192 8.89942C7.9203 8.85542 7.98309 8.83073 8.04832 8.83001H8.99325L10.4783 10.81V12.569ZM10.4783 9.1085V9.91001L9.66825 8.83001H10.2082C10.3574 8.83001 10.4783 8.9509 10.4783 9.10001V9.1085ZM11.0182 12.7603V9.43186L11.3366 9.48938C11.4826 9.51674 11.5792 9.65693 11.5526 9.80316L11.0182 12.7603Z" fill="#806886"/>
<path d="M8.58742 6.94008C8.62363 6.94008 8.65582 6.93605 8.68937 6.93304C8.57971 7.07089 8.42887 7.1701 8.25881 7.21634C8.12395 7.24572 8.03294 7.37215 8.04806 7.50953C8.06311 7.64676 8.17925 7.75058 8.31756 7.75001C8.33729 7.75001 8.35694 7.74785 8.37638 7.74381C8.6754 7.66814 8.94014 7.4934 9.12742 7.24825C9.31498 7.49347 9.57972 7.66814 9.87895 7.74381C10.0244 7.77686 10.1691 7.68549 10.2022 7.53991C10.235 7.3944 10.1438 7.24984 9.99818 7.21682C9.82762 7.17074 9.67634 7.07144 9.56626 6.93327C9.59952 6.93605 9.63156 6.94008 9.6677 6.94008C10.0371 6.94008 10.4777 6.79107 10.4777 6.08092C10.4777 5.67908 10.1687 5.42793 9.89609 5.20686C9.58656 4.95499 9.39742 4.7827 9.39742 4.51008C9.39742 4.36084 9.2766 4.24001 9.12742 4.24001C8.97845 4.24001 8.85756 4.36084 8.85756 4.51008C8.85756 4.7827 8.66842 4.95499 8.3591 5.20686C8.08666 5.42793 7.77734 5.67908 7.77734 6.08092C7.77734 6.79107 8.21813 6.94008 8.58742 6.94008ZM8.69966 5.62627C8.8549 5.50742 8.99832 5.37377 9.12742 5.22697C9.25658 5.37377 9.40001 5.50742 9.55546 5.62627C9.79327 5.81931 9.93756 5.94584 9.93756 6.08092C9.93756 6.32202 9.91675 6.40008 9.66742 6.40008C9.50146 6.40008 9.40562 6.35361 9.39742 6.26928C9.39742 6.12026 9.2766 5.99936 9.12742 5.99936C8.97845 5.99936 8.85756 6.12026 8.85756 6.26928C8.84935 6.35361 8.75359 6.40008 8.58742 6.40008C8.3383 6.40008 8.31756 6.32202 8.31756 6.08092C8.31756 5.94584 8.46163 5.81931 8.69966 5.62627Z" fill="#806886"/>
</svg>
