<svg width="18" height="18" viewBox="0 0 18 18" fill="none" xmlns="http://www.w3.org/2000/svg">
<mask id="mask0_3_3287" style="mask-type:luminance" maskUnits="userSpaceOnUse" x="-1" y="0" width="19" height="18">
<path d="M17.2761 0H-0.00390625V17.28H17.2761V0Z" fill="white"/>
</mask>
<g mask="url(#mask0_3_3287)">
<path d="M5.13325 5.18462C4.46957 5.10156 4.28976 5.02475 4.28976 4.64248C4.28976 4.26994 4.7634 4.10248 5.09976 4.10248C5.42368 4.06788 5.74285 4.20145 5.94546 4.45673C6.02013 4.58302 6.18197 4.62664 6.31 4.55499C6.43795 4.48317 6.48522 4.32228 6.41626 4.19258C6.17762 3.84174 5.79281 3.61783 5.36976 3.58378V3.29248C5.36976 3.14338 5.24893 3.02256 5.09976 3.02256C4.95074 3.02256 4.82984 3.14338 4.82984 3.29248V3.58441C4.26743 3.67317 3.74976 4.03731 3.74976 4.64248C3.74976 5.55581 4.54226 5.65502 5.06634 5.72026C5.73001 5.8034 5.90984 5.88013 5.90984 6.26248C5.90984 6.60572 5.61442 6.80247 5.09976 6.80247C4.79072 6.83209 4.48018 6.76534 4.21066 6.61158C4.10472 6.50927 3.93638 6.51078 3.83226 6.61474C3.72806 6.71903 3.72664 6.88728 3.82886 6.99337C3.8808 7.04516 4.15293 7.27956 4.82984 7.33104V7.61249C4.82984 7.7616 4.95074 7.88242 5.09976 7.88242C5.24893 7.88242 5.36976 7.7616 5.36976 7.61249V7.32211C6.15711 7.22498 6.44984 6.71198 6.44984 6.26248C6.44984 5.34907 5.65733 5.25002 5.13325 5.18462Z" fill="#806886"/>
<path d="M5.0997 1.94256C3.16133 1.94256 1.58978 3.51394 1.58978 5.45232C1.58978 7.39087 3.16133 8.96227 5.0997 8.96227C7.03816 8.96227 8.60964 7.39087 8.60964 5.45232C8.60748 3.51489 7.03729 1.9447 5.0997 1.94256ZM5.0997 8.42227C3.45951 8.42227 2.1297 7.09267 2.1297 5.45232C2.1297 3.81213 3.45951 2.48256 5.0997 2.48256C6.73997 2.48256 8.06971 3.81213 8.06971 5.45232C8.0677 7.0918 6.73918 8.4204 5.0997 8.42227Z" fill="#806886"/>
<path d="M12.9297 9.50242C11.9266 9.49961 10.9639 9.89813 10.2566 10.6094C10.0385 10.8293 9.84802 11.075 9.68969 11.3411V5.45247C9.68969 2.91757 7.6346 0.86256 5.09969 0.86256C2.56477 0.86256 0.509766 2.91757 0.509766 5.45247V16.2523C0.509766 16.6996 0.872401 17.0623 1.31977 17.0623H8.87969C9.32696 17.0623 9.68969 16.6996 9.68969 16.2523V15.2234C9.84802 15.4894 10.0385 15.7351 10.2566 15.9551C11.4663 17.1649 13.3377 17.4113 14.8193 16.5559C16.301 15.7007 17.0235 13.9567 16.5807 12.3042C16.138 10.6516 14.6404 9.50242 12.9297 9.50242ZM9.14962 16.2523C9.14962 16.4014 9.02881 16.5222 8.87969 16.5222H1.31977C1.17067 16.5222 1.04977 16.4014 1.04977 16.2523V14.3624H3.2313C3.3648 15.2916 4.16086 15.9816 5.09969 15.9816C6.03851 15.9816 6.83457 15.2916 6.96806 14.3624H9.14962V16.2523ZM6.42268 14.3624C6.29497 14.9916 5.74175 15.4436 5.09969 15.4436C4.45778 15.4436 3.90456 14.9916 3.77677 14.3624H6.42268ZM3.77677 13.8224C3.90456 13.1931 4.45778 12.741 5.09969 12.741C5.74175 12.741 6.29497 13.1931 6.42268 13.8224H3.77677ZM9.14962 13.8224H6.96806C6.83457 12.893 6.03851 12.2032 5.09969 12.2032C4.16086 12.2032 3.3648 12.893 3.2313 13.8224H1.04977V7.61256C1.0527 7.61825 1.05618 7.62329 1.05927 7.62898C1.0679 7.64518 1.07787 7.66058 1.08627 7.67635C1.14208 7.77715 1.20202 7.87493 1.26521 7.97083C1.28437 8.00006 1.30385 8.02901 1.32357 8.05766C1.39728 8.16581 1.47392 8.26855 1.55603 8.36813L1.55928 8.37252C1.64266 8.47346 1.7315 8.56937 1.82334 8.66275C1.84733 8.68774 1.87211 8.71164 1.89705 8.73598C1.9779 8.81482 2.06088 8.89056 2.14734 8.96357C2.16255 8.9766 2.17695 8.99057 2.19239 9.00295C2.29287 9.08395 2.39739 9.16258 2.50444 9.23616C2.53152 9.25488 2.55852 9.27238 2.58694 9.29016C2.67689 9.34913 2.76866 9.40486 2.86209 9.45763C2.88711 9.4716 2.91174 9.48687 2.93731 9.50054C3.05236 9.5621 3.17001 9.61884 3.29053 9.67068C3.31753 9.68206 3.34445 9.69206 3.37153 9.70279C3.47192 9.74383 3.57406 9.7812 3.67795 9.81518C3.71001 9.82562 3.74216 9.83678 3.77494 9.84672C3.90234 9.88495 4.0314 9.91937 4.16284 9.94658C4.18232 9.95069 4.20227 9.9535 4.22191 9.9571C4.33751 9.97963 4.45437 9.9972 4.57298 10.0111C4.60941 10.0153 4.64583 10.0193 4.68265 10.0228C4.82058 10.0352 4.9593 10.0437 5.10055 10.0437C5.24165 10.0437 5.38045 10.0352 5.51838 10.0228C5.55512 10.0193 5.59162 10.0153 5.62804 10.0111C5.74634 9.99742 5.86328 9.97985 5.97912 9.9571C5.99884 9.9535 6.01871 9.95069 6.03835 9.94658C6.16963 9.91959 6.29908 9.88495 6.42624 9.84672C6.45887 9.83678 6.49094 9.82562 6.52308 9.81518C6.62697 9.78149 6.72918 9.74405 6.8295 9.70279C6.85658 9.69206 6.8835 9.68206 6.91058 9.67068C7.03133 9.61884 7.14899 9.5621 7.26373 9.50054C7.28936 9.48687 7.31391 9.4716 7.33918 9.45763C7.43307 9.40514 7.52473 9.34927 7.61422 9.29016C7.64108 9.27216 7.66952 9.25459 7.69515 9.23616C7.80315 9.16258 7.9069 9.08496 8.00727 9.00295C8.02268 8.98992 8.03729 8.97602 8.05234 8.96357C8.13874 8.89056 8.22197 8.81482 8.30261 8.73598C8.32745 8.71164 8.35237 8.68774 8.37641 8.66275C8.46814 8.56937 8.55706 8.47375 8.64051 8.37252L8.64368 8.36813C8.72475 8.26855 8.80244 8.16437 8.87609 8.05766C8.89582 8.02901 8.91526 8.00006 8.93441 7.97083C8.99756 7.87493 9.05753 7.77715 9.11341 7.67635C9.12226 7.66058 9.13227 7.64518 9.14048 7.62898C9.14343 7.62329 9.14688 7.61825 9.14984 7.61256L9.14962 13.8224ZM5.09969 9.50242C2.86304 9.50242 1.04977 7.68931 1.04977 5.45247C1.04977 3.21575 2.86304 1.40256 5.09969 1.40256C7.33637 1.40256 9.14962 3.21575 9.14962 5.45247C9.1471 7.68816 7.33537 9.4999 5.09969 9.50242ZM12.6366 10.0568C12.7336 10.0481 12.8309 10.0426 12.9297 10.0426C13.7893 10.04 14.6143 10.3818 15.2204 10.9914C15.2744 11.0454 15.3233 11.1025 15.3732 11.1594C14.4981 11.0688 13.6175 11.2632 12.862 11.7135C12.6585 11.1864 12.5813 10.6191 12.6366 10.0568ZM10.6387 10.9914C11.0407 10.5888 11.5424 10.2999 12.0925 10.1544C12.0487 10.7955 12.1565 11.4379 12.4071 12.0296C12.2913 12.1216 12.1805 12.2196 12.0756 12.3237C11.9378 12.4616 11.8099 12.6094 11.6933 12.7656C11.0972 12.5102 10.4489 12.4003 9.80194 12.4455C9.94731 11.8953 10.236 11.3935 10.6387 10.9914ZM10.9373 15.8343C10.1462 15.2248 9.6848 14.281 9.68969 13.2825C9.68969 13.1838 9.69531 13.0864 9.70402 12.9894C10.2781 12.9327 10.8577 13.0144 11.3938 13.2278C10.9536 14.0208 10.7928 14.9389 10.9373 15.8343ZM13.2226 16.5093C13.1257 16.518 13.0281 16.5236 12.9297 16.5236C12.4639 16.5231 12.0041 16.4218 11.5812 16.2266C11.2982 15.3077 11.4041 14.3128 11.8743 13.4741C12.0486 13.5831 12.2104 13.7107 12.3568 13.855C13.0245 14.5673 13.3415 15.539 13.2226 16.5082V16.5093ZM15.2204 15.5747C14.8184 15.9773 14.3167 16.2661 13.7666 16.4117C13.8594 15.3309 13.4854 14.2619 12.7386 13.4749C12.5675 13.3062 12.3786 13.1562 12.1754 13.0278C12.2629 12.9154 12.3571 12.8084 12.4573 12.7072C12.524 12.6405 12.5937 12.578 12.6649 12.5184C12.7951 12.7263 12.948 12.9194 13.1205 13.0938C13.8377 13.7821 14.7994 14.1567 15.7934 14.135C15.8805 14.135 15.9691 14.1275 16.0572 14.1223C15.9113 14.6714 15.6226 15.172 15.2204 15.5734V15.5747ZM16.1694 13.2825C16.1694 13.3809 16.1638 13.4785 16.1551 13.5752C15.1863 13.6943 14.2145 13.3773 13.5022 12.7098C13.3496 12.5557 13.2155 12.3846 13.102 12.1997C13.9096 11.704 14.8823 11.553 15.8021 11.7807C16.0446 12.244 16.1706 12.7595 16.1694 13.2825Z" fill="#806886"/>
<path d="M16.6964 1.77409C16.6681 1.68375 16.5944 1.61479 16.5024 1.59245L15.9084 1.44788L15.5797 0.977946C15.5267 0.909855 15.4452 0.869946 15.3587 0.869946C15.2723 0.869946 15.1907 0.909855 15.1377 0.977946L14.8083 1.44788L14.2143 1.59245C14.1222 1.61471 14.0486 1.68359 14.0201 1.77401C13.9919 1.86435 14.0129 1.96293 14.0757 2.03388L14.4537 2.46073L14.4218 3.00667C14.4166 3.09709 14.4569 3.1841 14.5295 3.23826C14.602 3.29266 14.6967 3.30699 14.782 3.27667L15.3587 3.07143L15.9353 3.27683C16.0208 3.30731 16.1156 3.29298 16.188 3.23858C16.2605 3.18426 16.3009 3.09725 16.2957 3.00698L16.2629 2.46097L16.6411 2.03411C16.7039 1.96325 16.7247 1.86443 16.6964 1.77409ZM15.7843 2.1859C15.737 2.2395 15.713 2.30974 15.717 2.38107L15.7322 2.63104L15.4495 2.53041C15.3908 2.50918 15.3267 2.50918 15.268 2.53041L14.9854 2.63104L15.0004 2.38107C15.0046 2.30974 14.9804 2.2395 14.9333 2.1859L14.7779 2.01092L15.0348 1.9482C15.0987 1.93269 15.1546 1.8942 15.1921 1.84028L15.3587 1.60314L15.5253 1.84131C15.5629 1.89531 15.6189 1.93372 15.6828 1.94939L15.9395 2.01202L15.7843 2.1859Z" fill="#806886"/>
<path d="M13.7284 6.06413C13.7 5.97379 13.6266 5.90482 13.5344 5.88241L12.9405 5.73822L12.6111 5.26822C12.5579 5.19997 12.4763 5.16006 12.3901 5.16006C12.3036 5.16006 12.2219 5.19997 12.169 5.26822L11.8395 5.73822L11.2455 5.88241C11.1535 5.90466 11.0798 5.97363 11.0515 6.06397C11.023 6.15439 11.0442 6.25297 11.107 6.32384L11.4849 6.75093L11.4523 7.29684C11.4471 7.38735 11.4874 7.4744 11.5599 7.52854C11.6323 7.58283 11.7272 7.5973 11.8125 7.56692L12.3908 7.36179L12.9676 7.56713C13.0528 7.59759 13.1477 7.58326 13.2201 7.52883C13.2924 7.47454 13.3329 7.38749 13.3277 7.2972L13.295 6.75093L13.673 6.32384C13.7356 6.25297 13.7567 6.15439 13.7284 6.06413ZM12.8162 6.47641C12.7689 6.53002 12.7447 6.60017 12.7491 6.67159L12.7643 6.92163L12.4815 6.82092C12.4228 6.79962 12.3587 6.79962 12.3 6.82092L12.0173 6.92163L12.0325 6.67159C12.0369 6.60017 12.0126 6.53002 11.9653 6.47641L11.8101 6.30142L12.0669 6.23801C12.1307 6.22232 12.1867 6.18393 12.2243 6.13001L12.3908 5.89342L12.5573 6.13159C12.5949 6.18559 12.6509 6.22399 12.7149 6.23959L12.9715 6.30229L12.8162 6.47641Z" fill="#806886"/>
</g>
</svg>
