<svg width="30" height="30" viewBox="0 0 30 30" fill="none" xmlns="http://www.w3.org/2000/svg">
<path d="M15.1719 3.10352C15.3138 3.12057 15.4528 3.15952 15.584 3.21777L15.7119 3.28223C15.833 3.35124 15.9435 3.43786 16.04 3.53906L25.2432 12.8975H25.2441C25.3765 13.0321 25.481 13.1922 25.5518 13.3672L25.5986 13.5C25.6252 13.5902 25.6429 13.6828 25.6514 13.7764L25.6572 13.918C25.6561 14.0597 25.6339 14.2002 25.5918 14.335L25.543 14.4668C25.4877 14.5972 25.4136 14.7188 25.3232 14.8271L25.2275 14.9307C25.093 15.063 24.9337 15.1675 24.7588 15.2383C24.6275 15.2914 24.4892 15.3252 24.3486 15.3379L24.208 15.3438C24.0664 15.3426 23.9257 15.3204 23.791 15.2783L23.6582 15.2295C23.528 15.1743 23.4071 15.1 23.2988 15.0098L23.1943 14.9141L16.4375 8.04199V26.7188C16.4375 27.0523 16.3219 27.3741 16.1123 27.6299L16.0166 27.7354C15.747 28.0048 15.3811 28.1562 15 28.1562C14.6663 28.1562 14.3447 28.0398 14.0889 27.8301L13.9834 27.7354C13.7139 27.4658 13.5625 27.0999 13.5625 26.7188V8.04199L6.80664 14.9141C6.7075 15.0149 6.59435 15.1004 6.4707 15.168L6.34277 15.2295C6.21237 15.2848 6.0749 15.3209 5.93457 15.3359L5.79395 15.3438C5.65228 15.345 5.5114 15.325 5.37598 15.2852L5.24219 15.2393C5.111 15.1862 4.98867 15.1139 4.87891 15.0254L4.77344 14.9316C4.67247 14.8324 4.58711 14.7186 4.51953 14.5947L4.45801 14.4678C4.40274 14.3375 4.36661 14.1998 4.35156 14.0596L4.34375 13.918C4.3406 13.537 4.48884 13.1702 4.75586 12.8984L13.9736 3.52441L13.9766 3.52148L13.9893 3.50977L13.9922 3.50684L14.0996 3.41113C14.211 3.32153 14.3354 3.24839 14.4688 3.19531L14.6045 3.14941C14.742 3.11003 14.8848 3.09095 15.0283 3.09375L15.1719 3.10352Z" fill="#FF4200" stroke="#FF4200"/>
</svg>
